<svg width="500" height="565" viewBox="0 0 500 565" fill="none" xmlns="http://www.w3.org/2000/svg">
<path d="M446.797 295.319C506.818 428.487 449.378 526.661 286.267 526.661C75.7197 670.639 2.83736 370.146 81.9118 266.81C18.0807 108.997 -30.6228 22.6874 226.131 61.6003C258.999 8.87895 477.76 -121.906 446.797 295.319Z" fill="white" fill-opacity="0.69"/>
<g clip-path="url(#clip0_572_8437)">
<path d="M154.402 395.945H91.7707C90.1918 395.945 88.907 394.661 88.907 393.084C88.907 391.506 90.1918 390.223 91.7707 390.223H154.402C155.981 390.223 157.265 391.506 157.265 393.084C157.265 394.661 155.981 395.945 154.402 395.945H154.402V395.945Z" fill="#B71632"/>
<path d="M42.5459 411.262C42.5459 411.776 42.959 412.188 43.4734 412.188H202.699C203.213 412.188 203.626 411.776 203.626 411.262C203.626 410.748 203.213 410.335 202.699 410.335H43.4734C42.959 410.335 42.5459 410.748 42.5459 411.262Z" fill="#3F3D56"/>
<path d="M378.486 224.531C406.466 224.531 429.147 201.867 429.147 173.909C429.147 145.952 406.466 123.288 378.486 123.288C350.506 123.288 327.824 145.952 327.824 173.909C327.824 201.867 350.506 224.531 378.486 224.531Z" fill="#FF6884"/>
<path d="M0 475.228C0 475.742 0.413109 476.155 0.927542 476.155H408.004C408.519 476.155 408.932 475.742 408.932 475.228C408.932 474.714 408.519 474.302 408.004 474.302H0.927542C0.413109 474.302 0 474.714 0 475.228Z" fill="#3F3D56"/>
<path d="M5.88838 412.643L4.58618 411.217L131.679 295.336L177.469 315.846L226.914 231.118L267.539 211.552L305.178 274.235C325.5 221.668 376.463 166.67 437.53 110.871L439.032 112.086C381.757 166.878 332.753 221.918 304.943 277.596L270.127 219.445C268.483 216.698 265.026 215.637 262.122 216.988L262.122 216.988C239.916 227.312 221.394 244.164 209.032 265.291L178.059 318.226L170.989 315.059C147.343 304.468 119.662 308.907 100.52 326.36L5.88838 412.643Z" fill="#3F3D56"/>
<path d="M440.395 121.421L438.466 121.554L435.352 114.812L428.381 113.397L428.11 111.483L439.601 109.852L440.395 121.421Z" fill="#3F3D56"/>
<path d="M242.15 162.676L248.981 136.433L275.596 135.154L283.559 171.329L242.15 162.676Z" fill="#FFB6B6"/>
<path opacity="0.1" d="M242.15 162.676L248.981 136.433L275.596 135.154L283.559 171.329L242.15 162.676Z" fill="black"/>
<path d="M259.663 151.12C277.404 151.12 291.787 136.748 291.787 119.021C291.787 101.293 277.404 86.9216 259.663 86.9216C241.921 86.9216 227.538 101.293 227.538 119.021C227.538 136.748 241.921 151.12 259.663 151.12Z" fill="#FFB6B6"/>
<path d="M277.387 125.815H277.387C277.387 125.815 265.183 101.655 250.885 103.05C236.586 104.445 229.054 106.141 229.054 106.141C229.054 106.141 224.809 87.3239 244.792 80.086C244.792 80.086 219.384 55.0603 249.634 42.7841C279.884 30.508 296.81 46.1647 296.81 46.1647C296.81 46.1647 319.201 68.5 291.001 85.1937C291.001 85.1937 311.941 113.338 286.588 136.536C286.588 136.536 292.259 117.764 286.342 121.226C280.425 124.688 277.387 125.815 277.387 125.815V125.815L277.387 125.815L277.387 125.815Z" fill="#2F2E41"/>
<path d="M224.219 295.407L219.946 299.499L189.075 365.638L185.696 475.037H237.562L261.892 420.862L278.285 474.514H324.921L335.731 377.119L306.67 308.238L224.219 295.407Z" fill="#2F2E41"/>
<path d="M277.948 160.01H243.31L205.634 180.269L214.419 219.436C214.419 219.436 212.392 243.071 217.123 260.629C221.854 278.187 219.826 301.147 219.826 301.147L306.671 308.238L309.374 228.553L308.022 175.204L277.948 160.01V160.01V160.01Z" fill="#E6E6E6"/>
<path d="M211.378 180.606C211.378 180.606 190.427 181.281 187.048 194.788C183.669 208.294 180.966 277.849 180.966 277.849C180.966 277.849 182.993 319.123 205.633 299.499C228.274 279.875 226.246 220.449 226.246 220.449L211.378 180.606V180.606Z" fill="#E6E6E6"/>
<path d="M414.588 525.136H291.123C286.942 525.136 283.54 521.737 283.54 517.558V390.025C283.54 385.846 286.942 382.448 291.123 382.448H414.588C418.77 382.448 422.171 385.846 422.171 390.025V517.558C422.171 521.737 418.77 525.136 414.588 525.136Z" fill="white"/>
<path d="M414.588 525.915H291.123C286.512 525.915 282.76 522.166 282.76 517.559V390.025C282.76 385.417 286.512 381.669 291.123 381.669H414.588C419.199 381.669 422.951 385.417 422.951 390.025V517.559C422.951 522.166 419.199 525.915 414.588 525.915ZM291.123 383.226C287.371 383.226 284.319 386.276 284.319 390.025V517.559C284.319 521.307 287.371 524.357 291.123 524.357H414.588C418.34 524.357 421.392 521.307 421.392 517.559V390.025C421.392 386.276 418.34 383.226 414.588 383.226H291.123Z" fill="#3F3D56"/>
<path d="M357.728 491.631H347.552C346.313 491.631 345.305 490.854 345.305 489.899V446.121C345.305 445.166 346.313 444.388 347.552 444.388H357.728C358.967 444.388 359.975 445.166 359.975 446.121V489.899C359.975 490.854 358.967 491.631 357.728 491.631Z" fill="#B71632"/>
<path d="M324.085 465.833C323.084 465.833 322.27 466.461 322.27 467.233V489.849C322.27 490.621 323.084 491.25 324.085 491.25H334.261C335.262 491.25 336.077 490.621 336.077 489.849V467.233C336.077 466.461 335.262 465.833 334.261 465.833H324.085Z" fill="#B71632"/>
<path d="M381.195 491.631H371.019C369.78 491.631 368.772 490.854 368.772 489.898V418.156C368.772 417.2 369.78 416.423 371.019 416.423H381.195C382.434 416.423 383.441 417.2 383.441 418.156V489.898C383.441 490.854 382.434 491.631 381.195 491.631Z" fill="#B71632"/>
<path d="M162.214 177.156H150.59C149.175 177.156 148.024 176.268 148.024 175.176V125.17C148.024 124.078 149.175 123.19 150.59 123.19H162.214C163.629 123.19 164.781 124.078 164.781 125.17V175.176C164.781 176.268 163.629 177.156 162.214 177.156V177.156V177.156Z" fill="#B71632"/>
<path d="M123.784 147.687C122.641 147.687 121.711 148.404 121.711 149.286V175.12C121.711 176.002 122.641 176.72 123.784 176.72H135.408C136.552 176.72 137.482 176.002 137.482 175.12V149.286C137.482 148.404 136.552 147.687 135.408 147.687H123.784Z" fill="#B71632"/>
<path d="M189.02 177.156H177.396C175.981 177.156 174.829 176.268 174.829 175.176V93.2252C174.829 92.1336 175.981 91.2456 177.396 91.2456H189.02C190.435 91.2456 191.586 92.1336 191.586 93.2252V175.176C191.586 176.268 190.435 177.156 189.02 177.156V177.156V177.156Z" fill="#B71632"/>
<path d="M333.928 401.003C339.948 400.427 344.094 392.298 343.188 382.842C342.878 379.059 341.666 375.406 339.654 372.188L338.493 361.486L338.671 361.432L341.588 310.688C342.266 298.889 337.592 287.295 328.586 279.634C323.229 275.076 317.514 272.768 313.839 278.527C307.741 288.082 315.64 327.472 320.827 349.866L322.838 373.796C321.472 377.339 320.975 381.156 321.388 384.93C322.293 394.383 327.907 401.579 333.928 401.003V401.003Z" fill="#FFB6B6"/>
<path d="M300.588 176.554C300.588 176.554 318.16 169.801 326.27 190.06C334.38 210.319 343.165 310.264 343.165 310.264L301.94 302.836L300.588 176.554V176.554V176.554Z" fill="#E6E6E6"/>
<path d="M59.3065 166.645H35.646C34.067 166.645 32.7822 165.361 32.7822 163.784C32.7822 162.206 34.067 160.923 35.646 160.923H59.3065C60.8855 160.923 62.1697 162.206 62.1697 163.784C62.1697 165.362 60.8855 166.645 59.3065 166.645Z" fill="#E6E6E6"/>
<path d="M59.3065 126.086H35.646C34.067 126.086 32.7822 124.803 32.7822 123.225C32.7822 121.647 34.067 120.364 35.646 120.364H59.3065C60.8855 120.364 62.1697 121.647 62.1697 123.225C62.1697 124.803 60.8855 126.086 59.3065 126.086Z" fill="#E6E6E6"/>
<path d="M59.3065 96.8372H35.646C34.067 96.8372 32.7822 95.5534 32.7822 93.9757C32.7822 92.3979 34.067 91.1147 35.646 91.1147H59.3065C60.8855 91.1147 62.1697 92.3979 62.1697 93.9757C62.1697 95.5534 60.8855 96.8372 59.3065 96.8372Z" fill="#E6E6E6"/>
<path d="M31.833 177.297C31.833 177.811 32.2461 178.224 32.7605 178.224H191.986C192.5 178.224 192.913 177.811 192.913 177.297C192.913 176.783 192.5 176.37 191.986 176.37H32.7605C32.2461 176.37 31.833 176.783 31.833 177.297Z" fill="#3F3D56"/>
<path d="M338.92 417.166C338.92 417.68 339.333 418.092 339.847 418.092H499.072C499.587 418.092 500 417.68 500 417.166C500 416.652 499.587 416.239 499.072 416.239H339.847C339.333 416.239 338.92 416.652 338.92 417.166V417.166Z" fill="#3F3D56"/>
<path d="M292.155 492.709C292.155 493.223 292.568 493.635 293.083 493.635H452.308C452.822 493.635 453.236 493.223 453.236 492.709C453.236 492.195 452.822 491.782 452.308 491.782H293.083C292.568 491.782 292.155 492.195 292.155 492.709V492.709Z" fill="#3F3D56"/>
<path d="M185.084 172.612C179.063 173.188 174.917 181.317 175.823 190.773C176.133 194.556 177.345 198.209 179.358 201.427L180.518 212.13L180.34 212.183L177.423 262.927C176.745 274.726 181.42 286.32 190.425 293.982C195.782 298.539 201.497 300.847 205.172 295.088C211.27 285.533 203.371 246.144 198.184 223.749L196.173 199.819C197.539 196.276 198.036 192.459 197.623 188.685C196.719 179.232 191.104 172.036 185.084 172.612H185.084V172.612Z" fill="#FFB6B6"/>
</g>
<defs>
<clipPath id="clip0_572_8437">
<rect width="500" height="487.83" fill="white" transform="translate(0 38.085)"/>
</clipPath>
</defs>
</svg>
